<mxfile host="www.draw.io" modified="2020-01-21T19:45:56.028Z" agent="Mozilla/5.0 (iPhone; CPU iPhone OS 13_3 like Mac OS X) AppleWebKit/605.1.15 (KHTML, like Gecko) Version/13.0.4 Mobile/15E148 Safari/604.1" etag="S8lrkvpwx9aGR2CvjhOA" version="12.5.5" type="github">
  <diagram id="zO9eOWATG3YIhuHe7Vzq" name="Page-1">
    <mxGraphModel dx="341" dy="516" grid="1" gridSize="10" guides="1" tooltips="1" connect="1" arrows="1" fold="1" page="1" pageScale="1" pageWidth="850" pageHeight="1100" math="0" shadow="0">
      <root>
        <mxCell id="0"/>
        <mxCell id="1" parent="0"/>
        <object label="" Yeetus="Feetus" id="QFXdVP_PP7witwyvd1nM-2">
          <mxCell style="whiteSpace=wrap;html=1;" vertex="1" parent="1">
            <mxGeometry x="60" y="110" width="300" height="150" as="geometry"/>
          </mxCell>
        </object>
      </root>
    </mxGraphModel>
  </diagram>
</mxfile>
